<svg id="Layer_1" xmlns="http://www.w3.org/2000/svg" viewBox="0 0 185 46"><style>.st0,.st1,.st2{fill-rule:evenodd;clip-rule:evenodd;fill:#60a3e5}.st1,.st2{fill:url(#SVGID_1_)}.st2{fill:url(#SVGID_2_)}.st3{fill:#304051}</style><path class="st0" d="M30.5 24.9h-4c-1.2 0-2.3-.6-2.3-1.8 0 0-.7-14.2-.7-22.8V0h9.3v23.1c0 1.3-1.1 1.8-2.3 1.8z"/><linearGradient id="SVGID_1_" gradientUnits="userSpaceOnUse" x1="8.835" y1="30.828" x2="23.912" y2="30.828"><stop offset="0" stop-color="#1b559e"/><stop offset="1" stop-color="#3f7ec3"/></linearGradient><path class="st1" d="M24.2 23.1c0 4.3-3.5 7.7-7.8 7.7S8.6 27 8.6 23H0c0 8 7.3 16.4 16.4 16.4 9 0 16.3-7.3 16.4-16.3v-.2l-8.6-.6v.8z"/><linearGradient id="SVGID_2_" gradientUnits="userSpaceOnUse" x1="9.414" y1="26.369" x2="23.931" y2="26.369"><stop offset="0" stop-color="#60a3e5"/><stop offset="1" stop-color="#3f7ec3"/></linearGradient><path class="st2" d="M16.4 6.7C7.3 6.7 0 14 0 23v23h9s0 .1 0 0c0-8.6-.5-22.9-.5-22.9l.1-.1c0-4 3.5-7.7 7.8-7.7s7.8 3.7 7.8 7.7h8.6c-.1-9-7.4-16.3-16.4-16.3z"/><path class="st3" d="M62.7 10.5h-9.3v26.1h3.7V27h5.7c4.8 0 8.2-3.3 8.2-8.3s-3.5-8.2-8.3-8.2zm-.5 13.3h-5.1V13.7h5.1c3.1 0 5 1.9 5 5s-1.9 5.1-5 5.1zm15.1-1.2c-.1 0 0-.6 0-1.4v-3.4h-3.5v18.7h3.6v-7.8c0-3.6 1.7-7.6 5.7-7.6.4 0 .9 0 1 .1v-3.5c-.3 0-.6-.1-1-.1-2.8.1-5 2.3-5.8 5zm17.8-5.2c-5.5 0-10 4.1-10 9.8 0 5.7 4.5 9.8 10.1 9.8 5.5 0 10-4.1 10-9.8 0-5.7-4.5-9.8-10.1-9.8zm.1 16.5c-3.5 0-6.4-2.8-6.4-6.7 0-3.9 2.9-6.7 6.4-6.7 3.5 0 6.4 2.8 6.4 6.7 0 3.9-2.9 6.7-6.4 6.7zm27.1-16h-4.1l-3.5 5.7c-.3.5-.6 1.1-.6 1.1h-.1s-.3-.6-.6-1.1l-3.5-5.7h-4.1l6 9.1-6.4 9.6h4.1l3.9-6.2c.3-.4.6-1 .6-1h.1s.3.6.6 1l3.9 6.2h4.1l-6.4-9.6 6-9.1zm3.2-3.8h3.7v-3.6h-3.7v3.6zm.1 22.5h3.6V17.9h-3.6v18.7zm9.4-19.3v.8h-2.3V21h2.3v15.6h3.6V21h4.4v-2.9h-4.4v-.8c0-3.4 2.5-3.8 3.9-3.8.4 0 .8 0 .9.1v-3.1c-.5-.1-.9-.1-1.4-.1-2.3-.1-7 .7-7 6.9zm11.4-3.2h3.7v-3.6h-3.7v3.6zm0 22.5h3.6V17.9h-3.6v18.7zm16.2-19.2c-5.3 0-9.4 3.8-9.4 9.8 0 5.5 4.1 9.8 9.9 9.8 2.6 0 5.4-1 7.2-2.7l-1.5-2.6c-1.5 1.3-3.5 2.2-5.5 2.2-3.4 0-6.2-2.2-6.4-6.2h13.6c.1-.5.1-1 .1-1.5.1-4.8-2.7-8.8-8-8.8zm-5.5 7.7c.5-3.1 2.7-4.9 5.5-4.9 2.4 0 4.4 1.7 4.5 4.9h-10zm26.6-7.4c-2.9 0-5.1 2.3-5.9 5h-.1s.1-.6.1-1.4v-3.4h-3.5v18.7h3.6v-7.8c0-3.6 1.7-7.6 5.7-7.6.4 0 .9 0 1 .1v-3.5c-.3-.1-.6-.1-.9-.1z"/></svg>